<svg xmlns="http://www.w3.org/2000/svg" viewBox="0 0 64 64" width="64" height="64">
  <defs>
    <linearGradient id="techGradient" x1="0%" y1="0%" x2="100%" y2="100%">
      <stop offset="0%" style="stop-color:#2563EB;stop-opacity:1" />
      <stop offset="100%" style="stop-color:#1D4ED8;stop-opacity:1" />
    </linearGradient>
  </defs>
  
  <!-- Background circle -->
  <circle cx="32" cy="32" r="30" fill="url(#techGradient)" stroke="#1D4ED8" stroke-width="2"/>
  
  <!-- Tech icon - stylized circuit board -->
  <g fill="white" opacity="0.9">
    <!-- Central processor -->
    <rect x="24" y="24" width="16" height="16" rx="2" fill="white"/>
    <rect x="26" y="26" width="12" height="12" rx="1" fill="#2563EB"/>
    
    <!-- Circuit lines -->
    <rect x="12" y="30" width="12" height="2" fill="white"/>
    <rect x="40" y="30" width="12" height="2" fill="white"/>
    <rect x="30" y="12" width="2" height="12" fill="white"/>
    <rect x="30" y="40" width="2" height="12" fill="white"/>
    
    <!-- Connection points -->
    <circle cx="12" cy="31" r="3" fill="white"/>
    <circle cx="52" cy="31" r="3" fill="white"/>
    <circle cx="31" cy="12" r="3" fill="white"/>
    <circle cx="31" cy="52" r="3" fill="white"/>
    
    <!-- Small circuit elements -->
    <rect x="16" y="18" width="4" height="2" rx="1" fill="white"/>
    <rect x="44" y="18" width="4" height="2" rx="1" fill="white"/>
    <rect x="16" y="44" width="4" height="2" rx="1" fill="white"/>
    <rect x="44" y="44" width="4" height="2" rx="1" fill="white"/>
  </g>
  
  <!-- Highlight effect -->
  <circle cx="32" cy="32" r="30" fill="none" stroke="white" stroke-width="1" opacity="0.3"/>
</svg>
